<svg width="132" height="128" viewBox="0 0 132 128" fill="none" xmlns="http://www.w3.org/2000/svg">
<path d="M115.5 118L103.5 93.5C102.955 94.2014 99.3277 100.551 98.5001 101.5L101.5 118H115.5Z" fill="#D9D9D9"/>
<path d="M34 51L101.5 40C94.5 16.5 81.1009 11.4364 66.5 10.5C51.8991 9.56359 36.9329 13.7404 25.5 25.5C7.99994 43.5 9.91528 71.629 13 81.5C18 97.5 32 112 47 115.5C60 118.533 74.0001 117 80.5001 114.5C85.6335 112.526 93.5001 109 98.5001 101.5M98.5001 101.5C99.3277 100.551 102.955 94.2014 103.5 93.5L115.5 118H101.5L98.5001 101.5Z" stroke="#1BBBEF" stroke-width="20"/>
</svg>
