<svg width="500" height="350" viewBox="0 0 394 248" fill="white" xmlns="http://www.w3.org/2000/svg">

<defs>
    <linearGradient id="grad1" x1="0%" x2="100%" y1="0%" y2="0%">
      <stop offset="0%" stop-color="yellow" />
      <stop offset="100%" stop-color="red" />
    </linearGradient>
  </defs>
<!-- <g style="mix-blend-mode:darken"> -->
<path d="M1.41084 140.605
C3.8967 163.394 9.59895 185.184 19.4836 201.081L19.4615 201.096
C19.573 201.258 19.6845 201.419 19.7962 201.58
C21.3048 203.966 22.9099 206.217 24.615 208.315
L24.6924 208.253C44.4423 233.717 67.8589 246.951 91.66 245.736
C115.84 244.502 134.279 231.795 147.959 214.288
C161.632 196.789 170.574 174.472 175.787 153.926
C182.422 127.779 183.496 106.187 183.503 103.527
C187.001 70.3509 188.685 59.1002 198.763 39.6913
C208.855 20.2559 222.457 9.5 236.503 9.5
C250.602 9.5 264.497 17.3576 274.556 36.7304
C283.723 54.3844 287.759 74.1912 290.98 94.3544
C291.584 98.1399 292.16 101.939 292.736 105.738
C295.224 122.15 297.713 138.569 302.523 153.953
C308.709 173.74 314.78 193.133 324.607 207.699
C334.414 222.237 345.539 233.213 357.254 239.873
C368.968 246.532 381.041 248.96 392.608 246.489
L393.003 246.404V246V241.408V240.879L392.475 240.908
C368.96 242.224 345.951 226.766 328.168 197.423
C319.297 182.784 311.876 158.681 306.546 136.628
C301.218 114.584 297.999 94.674 297.502 88.4633
L297.499 88.437
L297.495 88.411
C296.289 81.9799 295.721 78.2746 295.275 75.3596
C294.616 71.053 294.22 68.4717 292.421 61.3741
C289.395 49.4426 284.957 38.5913 279.356 29.4425
C273.755 20.2942 267.094 13.0182 259.744 8.04568
C252.392 3.07147 244.494 0.5 236.503 0.5
C228.513 0.5 220.614 3.07147 213.262 8.04568
C205.912 13.0183 199.251 20.2942 193.65 29.4425
C188.049 38.5913 183.611 49.4426 180.586 61.3741
C177.037 75.3675 175.384 89.6921 173.734 103.998L173.66 104.636
C171.983 119.166 170.279 133.673 166.575 147.862
C161.761 166.302 155.335 184.643 147.575 197.742
C138.81 212.206 127.771 222.165 114.917 228.728
C102.077 235.284 88.2158 237.119 74.7078 234.061
C61.1966 231.003 48.4872 223.15 37.8548 211.259
C27.2218 199.368 19.044 183.86 14.1494 166.274
C9.25501 148.69 7.81783 129.654 9.98328 111.069
C12.1488 92.4836 17.84 75.0086 26.4811 60.3858
C35.1223 45.7628 46.4046 34.5137 59.1892 27.7401
C65.3308 24.4862 73.4063 21.4861 81.5522 20.329
C89.7051 19.1708 97.8628 19.867 104.235 23.9218
L104.25 23.9316L104.266 23.9403
C111.792 27.9912 117.378 35.2978 119.751 43.3392
C122.119 51.3672 121.102 59.9792 116.922 67.282
C112.762 74.5497 104.714 79.2801 96.3223 82.5338
L96.3119 82.5379L96.3016 82.5424L76.9966 91.0424
L76.6981 91.1739V91.5L76.6981 100.78V101.201L77.1132 101.273
C86.4742 102.885 96.4434 102.603 106.198 100.455
C115.953 98.3072 125.221 94.3531 133.235 88.917
C141.249 83.4809 147.785 76.7149 152.297 69.1718
C156.809 61.628 159.168 53.5205 159.164 45.519
C159.16 37.5159 156.792 29.8607 152.259 23.1901
C147.746 16.5506 139.81 8.5828 130.684 5.034L130.665 5.02662
L130.646 5.02081C106.99 -2.02572 80.4668 3.23668 60.1792 14.1383
C39.8747 25.0489 23.4613 42.8958 13.0052 65.4085
C2.54959 87.9202 -1.4815 114.089 1.41084 140.605
ZM236.503 144.5C243.386 144.5 249.003 139.147 249.003 132.5
C249.003 125.853 243.386 120.5 236.503 120.5
C229.62 120.5 224.003 125.853 224.003 132.5
C224.003 139.147 229.62 144.5 236.503 144.5Z"
      stroke="#1bbbef" stroke-width="8" fill="#1bbbef"/>
<!-- </g> -->
</svg>
