<svg width="125" height="124" viewBox="0 0 125 124" fill="none" xmlns="http://www.w3.org/2000/svg">
<path d="M112.5 116L100.5 91.5C99.9546 92.2014 96.3277 98.5512 95.5001 99.5L98.5 116H112.5Z" fill="#D9D9D9"/>
<path d="M31 49L98.5 38C91.5 14.5 78.1009 9.43642 63.5 8.5C48.8991 7.56359 33.9329 11.7404 22.5 23.5C4.99994 41.5 6.91528 69.629 9.99999 79.5C15 95.5 29 110 44 113.5C57 116.533 71.0001 115 77.5001 112.5C82.6335 110.526 90.5001 107 95.5001 99.5M95.5001 99.5C96.3277 98.5512 99.9546 92.2014 100.5 91.5L112.5 116H98.5L95.5001 99.5Z" stroke="#1BBBEF" stroke-width="15"/>
</svg>
